<?xml version="1.0" standalone="no"?>
<!DOCTYPE svg PUBLIC "-//W3C//DTD SVG 20010904//EN"
 "http://www.w3.org/TR/2001/REC-SVG-20010904/DTD/svg10.dtd">
<svg version="1.0" xmlns="http://www.w3.org/2000/svg"
 width="256.000000pt" height="256.000000pt" viewBox="0 0 256.000000 256.000000"
 preserveAspectRatio="xMidYMid meet">
<metadata>
Created by potrace 1.16, written by Peter Selinger 2001-2019
</metadata>
<g transform="translate(0.000000,256.000000) scale(0.100000,-0.100000)"
fill="#000000" stroke="none">
<path d="M1095 2530 c-401 -63 -752 -315 -934 -669 -91 -177 -130 -325 -138
-526 -12 -273 43 -480 189 -723 171 -284 470 -494 810 -568 100 -22 313 -29
420 -15 411 55 770 306 957 670 91 177 130 325 138 526 12 273 -43 480 -189
723 -170 283 -466 491 -805 567 -82 19 -363 28 -448 15z m83 -272 c2 -10 -17
-51 -42 -90 -91 -147 -126 -268 -133 -454 -6 -162 9 -259 58 -384 91 -227 292
-432 510 -519 138 -55 183 -64 353 -67 88 -2 166 -6 173 -8 70 -27 -192 -197
-382 -248 -119 -32 -346 -31 -465 1 -164 44 -300 120 -419 235 -128 124 -216
272 -263 443 -31 113 -31 353 0 468 72 264 247 482 487 605 83 42 117 47 123
18z m470 -54 c16 -11 22 -25 22 -51 0 -48 -24 -73 -68 -73 -46 0 -72 24 -72
67 0 62 65 94 118 57z m565 -365 c25 -11 47 -47 47 -75 0 -25 -47 -64 -76 -64
-77 0 -101 112 -31 140 30 12 32 12 60 -1z m-1798 -74 c28 -27 30 -42 14 -79
-15 -33 -57 -50 -92 -37 -49 19 -61 71 -26 115 27 34 71 35 104 1z m1214 -433
c30 -23 31 -76 3 -104 -45 -46 -122 -12 -122 53 0 59 72 90 119 51z m791 -262
c45 -45 11 -120 -53 -120 -42 0 -70 29 -70 70 0 63 78 95 123 50z m-1937 -332
c23 -28 22 -67 -5 -95 -54 -58 -148 4 -118 78 21 50 87 60 123 17z m672 -444
c8 -4 23 -20 31 -36 19 -37 5 -80 -32 -97 -35 -16 -48 -14 -78 10 -65 51 0
153 79 123z"/>
</g>
</svg>
