<?xml version="1.0" standalone="no"?>
<!DOCTYPE svg PUBLIC "-//W3C//DTD SVG 20010904//EN"
 "http://www.w3.org/TR/2001/REC-SVG-20010904/DTD/svg10.dtd">
<svg version="1.0" xmlns="http://www.w3.org/2000/svg"
 width="256.000000pt" height="256.000000pt" viewBox="0 0 256.000000 256.000000"
 preserveAspectRatio="xMidYMid meet">
<metadata>
Created by potrace 1.16, written by Peter Selinger 2001-2019
</metadata>
<g transform="translate(0.000000,256.000000) scale(0.100000,-0.100000)"
fill="#fff " stroke="none">
<path d="M1175 2529 c-294 -19 -561 -143 -781 -363 -248 -248 -365 -532 -365
-886 0 -354 117 -638 365 -886 248 -248 532 -365 886 -365 354 0 638 117 886
365 248 248 365 532 365 886 0 354 -117 638 -365 886 -271 270 -591 388 -991
363z m132 -181 c11 -13 33 -43 48 -68 46 -75 58 -76 123 -16 68 63 90 73 112
50 10 -11 28 -52 40 -92 12 -40 27 -75 35 -78 7 -3 45 8 83 25 116 51 132 41
132 -82 0 -99 5 -103 109 -86 65 10 83 10 95 -1 21 -17 20 -31 -6 -118 -26
-91 -22 -97 81 -112 116 -16 124 -32 61 -129 -57 -87 -55 -94 38 -139 104 -50
107 -68 23 -142 -83 -71 -82 -76 22 -168 59 -52 52 -73 -40 -119 -48 -23 -79
-45 -81 -56 -2 -10 15 -48 37 -86 23 -37 41 -75 41 -84 0 -21 -24 -33 -85 -41
-123 -16 -125 -20 -95 -120 34 -110 34 -111 -90 -111 l-105 0 -5 -93 c-7 -125
-15 -131 -118 -82 -35 17 -72 30 -83 30 -21 0 -43 -37 -54 -90 -11 -54 -33
-90 -55 -90 -10 0 -46 23 -79 50 -33 28 -69 50 -80 50 -15 0 -33 -20 -62 -65
-23 -36 -49 -70 -58 -75 -23 -12 -53 9 -82 57 -31 53 -60 83 -78 83 -9 0 -42
-23 -74 -50 -32 -28 -67 -50 -78 -50 -24 0 -45 32 -60 95 -23 98 -32 102 -131
55 -105 -50 -118 -41 -118 76 0 55 -4 86 -12 91 -7 4 -56 8 -108 8 l-95 0 -3
28 c-2 16 4 49 12 74 21 61 20 100 -1 111 -10 5 -44 12 -77 16 -110 12 -118
33 -55 138 22 37 39 73 37 79 -2 7 -40 31 -84 53 -49 26 -80 48 -82 59 -3 13
18 40 63 81 79 73 79 83 6 142 -94 74 -91 95 18 148 91 44 93 51 43 128 -52
80 -54 112 -11 127 18 6 44 11 58 11 14 0 43 5 63 11 33 8 38 14 38 38 0 16
-7 48 -15 71 -8 23 -15 58 -15 76 0 44 25 50 121 33 67 -12 73 -11 85 6 9 12
14 46 14 91 0 40 3 79 6 88 9 24 48 19 126 -15 85 -37 90 -34 120 68 32 111
51 114 149 27 28 -25 58 -44 67 -42 10 2 36 32 59 67 58 89 75 97 110 59z"/>
</g>
</svg>
